<svg width="160" height="100" viewBox="0 0 160 100" fill="none" xmlns="http://www.w3.org/2000/svg">
<g clip-path="url(#clip0_65_2382)">
<rect width="160" height="100" rx="8" fill="white"/>
<g filter="url(#filter0_d_65_2382)">
<path d="M58 34C66.1347 44.2663 70.9669 49.028 80 56C90.9602 47.1123 95.83 42.2889 102 34" stroke="#FFCCEF" stroke-width="57.8583" stroke-linecap="round"/>
</g>
<g filter="url(#filter1_f_65_2382)">
<path d="M160 3.28063e-05V79.9999C160 91.0456 151.046 99.9999 140 99.9999H0" stroke="#FF44C5" stroke-opacity="0.5" stroke-width="2" stroke-linecap="round"/>
</g>
<path d="M125.008 10.9239C125.154 9.75627 126.846 9.75627 126.992 10.9239L128.129 20.0017C128.186 20.4601 128.55 20.8195 129.009 20.8712L139.179 22.0169C140.363 22.1503 140.363 23.8709 139.179 24.0043L129.05 25.1454C128.573 25.1992 128.201 25.5852 128.165 26.0645L126.997 41.6721C126.905 42.906 125.095 42.906 125.003 41.6721L123.835 26.0645C123.799 25.5852 123.427 25.1992 122.95 25.1454L112.821 24.0043C111.637 23.8709 111.637 22.1503 112.821 22.0169L122.991 20.8712C123.45 20.8195 123.814 20.4601 123.871 20.0017L125.008 10.9239Z" fill="white" fill-opacity="0.5"/>
</g>
<defs>
<filter id="filter0_d_65_2382" x="20.7011" y="-1.62568" width="126.968" height="112.923" filterUnits="userSpaceOnUse" color-interpolation-filters="sRGB">
<feFlood flood-opacity="0" result="BackgroundImageFix"/>
<feColorMatrix in="SourceAlpha" type="matrix" values="0 0 0 0 0 0 0 0 0 0 0 0 0 0 0 0 0 0 127 0" result="hardAlpha"/>
<feOffset dx="4.18439" dy="5.85814"/>
<feGaussianBlur stdDeviation="6.27658"/>
<feComposite in2="hardAlpha" operator="out"/>
<feColorMatrix type="matrix" values="0 0 0 0 1 0 0 0 0 0.268506 0 0 0 0 0.77274 0 0 0 0.3 0"/>
<feBlend mode="normal" in2="BackgroundImageFix" result="effect1_dropShadow_65_2382"/>
<feBlend mode="normal" in="SourceGraphic" in2="effect1_dropShadow_65_2382" result="shape"/>
</filter>
<filter id="filter1_f_65_2382" x="-13" y="-13" width="186" height="126" filterUnits="userSpaceOnUse" color-interpolation-filters="sRGB">
<feFlood flood-opacity="0" result="BackgroundImageFix"/>
<feBlend mode="normal" in="SourceGraphic" in2="BackgroundImageFix" result="shape"/>
<feGaussianBlur stdDeviation="6" result="effect1_foregroundBlur_65_2382"/>
</filter>
<clipPath id="clip0_65_2382">
<rect width="160" height="100" rx="8" fill="white"/>
</clipPath>
</defs>
</svg>
