<svg width="152" height="200" viewBox="0 0 152 200" fill="none" xmlns="http://www.w3.org/2000/svg">
<g clip-path="url(#clip0_65_2445)">
<rect width="152" height="200" rx="20" fill="#FF44C5"/>
<path d="M27.0203 43.8828C31.4617 43.8828 34.2039 45.4062 34.2156 48.0078C34.2039 50.6445 31.4617 52.1797 27.0203 52.1797C22.5086 52.1797 19.6961 50.6445 19.7078 48.0078C19.6961 45.4062 22.5086 43.8828 27.0203 43.8828ZM17.7156 42.1953V32.1641H20.6922V34.8594H25.0516V32.1641H28.0516V42.1953H17.7156ZM20.6922 39.8281H25.0516V37.1797H20.6922V39.8281ZM22.7078 48.0078C22.6844 49.2266 24.2195 49.8594 27.0203 49.8594C29.7859 49.8594 31.2625 49.2266 31.2625 48.0078C31.2625 46.7891 29.7859 46.2148 27.0203 46.2031C24.2195 46.2148 22.6844 46.7891 22.7078 48.0078ZM31.0047 43.4141V30.8281H34.0047V35.7734H36.8875V38.2812H34.0047V43.4141H31.0047ZM53.0312 32.5859V42.8281H42.7891V32.5859H53.0312ZM45.25 51.7812V44.8672H48.2266V49.3906H59.8516V51.7812H45.25ZM45.7422 40.4844H50.0781V34.9766H45.7422V40.4844ZM56.0781 46.3906V30.8281H59.0781V36.9688H61.9609V39.4297H59.0781V46.3906H56.0781ZM81.7984 39.1484V41.4922H62.2984V39.1484H81.7984ZM64.5484 45.0078V42.7578H79.3844V48.3359H67.5016V49.6484H79.9469V51.9688H64.5719V46.2031H76.4313V45.0078H64.5484ZM64.7359 37.9766V31.25H79.3141V33.6406H67.7125V35.6328H79.4781V37.9766H64.7359ZM91.1359 32.8906V41.1172H85.9094V44.9375C87.9367 44.9141 89.8586 44.832 92.05 44.4922L92.2609 46.8828C89.4719 47.3516 87.1633 47.4219 84.5266 47.4219H83.05V38.7266H88.2531V35.3047H83.0266V32.8906H91.1359ZM93.2453 51.125V31.1797H95.9875V38.8906H98.05V30.8281H100.886V52.1562H98.05V41.3047H95.9875V51.125H93.2453Z" fill="white"/>
<path d="M20.8 68.0703C20.7932 70.1553 21.5109 72.1924 23.2199 73.1016L22.3176 74.3047C21.2033 73.6826 20.465 72.5957 20.048 71.2764C19.6037 72.7324 18.8107 73.9561 17.6555 74.6465L16.6848 73.5391C18.5031 72.4727 19.3234 70.2715 19.3234 68.166V65.9512H20.8V68.0703ZM23.384 76.6152V65.0762H24.8195V69.7246H26.091V64.8574H27.5539V77.2168H26.091V70.9551H24.8195V76.6152H23.384ZM39.6824 74.5234V75.7812H28.3895V74.5234H33.2566V72.5137H29.7293V68.4668H36.8387V66.9355H29.702V65.7051H38.3426V69.6699H31.2469V71.2695H38.6297V72.5137H34.7605V74.5234H39.6824ZM51.1684 70.9688V72.1855H46.3969V74.4551H44.852V72.1855H39.8754V70.9688H51.1684ZM41.0785 67.6602C41.0717 66.1084 42.849 65.1309 45.5082 65.1309C48.1811 65.1309 49.9379 66.1084 49.9379 67.6602C49.9379 69.2188 48.1811 70.1826 45.5082 70.1758C42.849 70.1826 41.0717 69.2188 41.0785 67.6602ZM41.2562 76.9707V73.3066H42.7875V75.7266H49.9242V76.9707H41.2562ZM42.7191 67.6602C42.7055 68.4805 43.8129 68.959 45.5082 68.959C47.2172 68.959 48.3178 68.4805 48.3109 67.6602C48.3178 66.8125 47.2172 66.334 45.5082 66.334C43.8129 66.334 42.7055 66.8125 42.7191 67.6602ZM65.4039 74.4688V75.7129H54.1109V74.4688H58.9781V71.7754H55.3551V65.8145H64.1051V71.7754H60.482V74.4688H65.4039ZM56.8453 70.5859H62.6012V67.0312H56.8453V70.5859ZM75.9055 64.8711V71.8711H74.3742V64.8711H75.9055ZM65.8293 68.4121C65.8293 66.6689 67.2512 65.4658 69.1652 65.459C71.0725 65.4658 72.4943 66.6689 72.4875 68.4121C72.4943 70.1143 71.0725 71.3379 69.1652 71.3379C67.2512 71.3379 65.8293 70.1143 65.8293 68.4121ZM67.3195 68.4121C67.3127 69.4102 68.0852 70.0596 69.1652 70.0527C70.2248 70.0596 70.9973 69.4102 70.9973 68.4121C70.9973 67.3867 70.2248 66.7441 69.1652 66.7441C68.0852 66.7441 67.3127 67.3867 67.3195 68.4121ZM67.7023 77.0664V72.4727H75.9055V77.0664H67.7023ZM69.2062 75.8359H74.4152V73.6758H69.2062V75.8359ZM82.7293 65.0488C85.5457 65.0557 87.1795 65.8008 87.1863 67.168C87.1795 68.5488 85.5457 69.2939 82.7293 69.3008C79.9197 69.2939 78.2723 68.5488 78.2723 67.168C78.2723 65.8008 79.9197 65.0557 82.7293 65.0488ZM77.1102 71.1738V69.957H88.3758V71.1738H77.1102ZM78.4363 73.1289V72.0078H86.9676V75.0293H79.9402V75.9453H87.3094V77.1074H78.45V73.9492H85.4773V73.1289H78.4363ZM79.8719 67.168C79.865 67.8516 80.8494 68.166 82.7293 68.166C84.6365 68.166 85.6141 67.8516 85.6141 67.168C85.6141 66.5322 84.6365 66.1699 82.7293 66.1699C80.8494 66.1699 79.865 66.5322 79.8719 67.168ZM97.6074 65.9238V71.7617H91.7559V65.9238H97.6074ZM93.1641 76.9707V73.0059H94.6816V75.7402H101.572V76.9707H93.1641ZM93.2461 70.5586H96.1172V67.1406H93.2461V70.5586ZM99.5625 73.8809V64.8574H101.08V68.4805H102.803V69.752H101.08V73.8809H99.5625ZM114.111 69.8066V71.0098H102.832V69.8066H114.111ZM104.158 73.0059V71.8574H112.689V74.9609H105.662V75.9043H113.031V77.0938H104.171V73.8672H111.199V73.0059H104.158ZM104.267 69.0137V65.1719H112.662V66.3887H105.785V67.8105H112.771V69.0137H104.267ZM117.708 65.7598C119.376 65.7598 120.613 67.1543 120.832 69.4102H123.191V64.8574H124.695V77.2305H123.191V70.6406H120.846C120.682 73.0264 119.424 74.4961 117.708 74.4961C115.849 74.4961 114.529 72.8076 114.536 70.1211C114.529 67.4551 115.849 65.7598 117.708 65.7598ZM115.999 70.1211C115.992 72.0215 116.69 73.1221 117.708 73.1289C118.734 73.1221 119.424 72.0215 119.431 70.1211C119.424 68.2344 118.734 67.127 117.708 67.127C116.69 67.127 115.992 68.2344 115.999 70.1211ZM137.124 74.4688V75.7129H125.831V74.4688H128.442V71.3447C127.458 70.7773 126.863 69.8887 126.87 68.7949C126.863 66.8262 128.791 65.5273 131.45 65.5273C134.123 65.5273 136.064 66.8262 136.057 68.7949C136.064 69.875 135.483 70.7432 134.526 71.3105V74.4688H137.124ZM128.36 68.7949C128.353 70.0596 129.604 70.8662 131.45 70.8594C133.289 70.8662 134.567 70.0596 134.567 68.7949C134.567 67.5098 133.289 66.7236 131.45 66.7305C129.604 66.7236 128.353 67.5098 128.36 68.7949ZM129.946 74.4688H132.981V71.8916C132.51 71.9941 131.997 72.0488 131.45 72.0488C130.917 72.0488 130.411 71.9941 129.946 71.8984V74.4688Z" fill="#F2F2F2"/>
<path d="M64.0277 184.002C66.7648 184.002 68.9851 186.219 68.9851 188.956C68.9851 191.694 66.7648 193.911 64.0277 193.911C61.2933 193.911 59.073 191.694 59.073 188.956C59.073 186.219 61.2933 184.002 64.0277 184.002Z" fill="white"/>
<path d="M62.0535 191.599C62.0535 188.862 64.2738 186.645 67.0082 186.645C67.5381 186.645 68.0475 186.73 68.526 186.884C67.7402 185.184 66.0238 184.002 64.0277 184.002C61.2933 184.002 59.073 186.219 59.073 188.956C59.073 191.164 60.5187 193.033 62.5129 193.673C62.2208 193.042 62.0535 192.341 62.0535 191.599Z" fill="#F2F2F2"/>
<path d="M140.836 161.703C143.573 161.703 145.791 163.921 145.791 166.658C145.791 169.395 143.573 171.612 140.836 171.612C138.099 171.612 135.882 169.395 135.882 166.658C135.882 163.921 138.099 161.703 140.836 161.703Z" fill="white"/>
<path d="M141.391 165.369C143.207 165.369 144.79 166.348 145.652 167.805C145.74 167.436 145.791 167.053 145.791 166.658C145.791 163.921 143.573 161.703 140.836 161.703C138.099 161.703 135.882 163.921 135.882 166.658C135.882 167.579 136.137 168.438 136.575 169.177C137.092 166.994 139.049 165.369 141.391 165.369Z" fill="#F2F2F2"/>
<path d="M121.865 155.753C122.943 156.032 124.028 156.188 125.111 156.231L125.393 166.896L119.393 165.353L113.397 163.808L118.789 154.604C119.76 155.088 120.785 155.477 121.865 155.753Z" fill="#F6C2E6"/>
<path d="M119.368 157.611C120.339 158.095 121.365 158.483 122.445 158.76C123.356 158.996 124.273 159.138 125.189 159.205L125.111 156.231C124.028 156.188 122.943 156.032 121.865 155.753C120.785 155.477 119.76 155.088 118.789 154.604L113.397 163.808L115.431 164.333L119.368 157.611Z" fill="#FF8DDC"/>
<path d="M133.109 112.05C143.048 114.607 148.588 126.463 145.482 138.532C142.715 149.292 134.011 156.587 125.111 156.232C124.028 156.188 122.943 156.032 121.865 155.753C120.785 155.477 119.76 155.089 118.789 154.605C112.109 151.263 108.15 143.276 108.677 134.439C114.439 128.97 118.538 123.829 118.538 116.928C118.538 116.411 118.5 115.9 118.437 115.399C122.768 112.121 128.02 110.74 133.109 112.05Z" fill="#FFCCEF"/>
<path d="M111.321 137.356C117.082 131.887 121.181 126.746 121.181 119.845C121.181 119.328 121.143 118.816 121.08 118.316C125.411 115.038 130.664 113.657 135.753 114.966C138.212 115.599 140.401 116.803 142.257 118.436C139.987 115.308 136.862 113.015 133.109 112.05C128.021 110.74 122.768 112.121 118.437 115.399C118.5 115.9 118.538 116.411 118.538 116.928C118.538 123.829 114.439 128.97 108.677 134.439C108.248 141.64 110.797 148.276 115.37 152.294C112.489 148.328 110.982 143.018 111.321 137.356Z" fill="#FFAFE6"/>
<path d="M97.3844 144.746L101.194 154.268H95.2518H88.8069L92.7499 144.41C93.5784 145.195 94.4124 146.002 95.2436 146.836C95.9598 146.122 96.6734 145.425 97.3844 144.746Z" fill="#F2F2F2"/>
<path d="M93.3878 147.972C94.2163 148.757 95.0503 149.564 95.8816 150.398C96.598 149.684 97.3114 148.987 98.0223 148.309L100.407 154.268H101.194L97.3844 144.747C96.6734 145.425 95.9598 146.123 95.2434 146.837C94.4121 146.003 93.5781 145.196 92.7496 144.411L88.8066 154.269H90.8692L93.3878 147.972Z" fill="#C9C9C9"/>
<path d="M76.6031 163.808L70.6066 165.353L64.6074 166.896L64.8891 156.231C65.9719 156.188 67.0574 156.032 68.1348 155.753C69.2148 155.477 70.2402 155.088 71.2109 154.604L76.6031 163.808Z" fill="#F6C2E6"/>
<path d="M66.7121 159.238C67.7949 159.194 68.8804 159.039 69.9578 158.76C71.0204 158.488 72.0291 158.107 72.9855 157.634L71.2109 154.604C70.2402 155.089 69.2148 155.477 68.1348 155.753C67.0574 156.032 65.9719 156.188 64.8891 156.231L64.6074 166.896L66.5228 166.403L66.7121 159.238Z" fill="#FF8DDC"/>
<path d="M56.891 112.049C62.1601 110.693 67.6043 112.221 72.023 115.754C71.9848 116.143 71.9656 116.531 71.9656 116.927C71.9656 123.616 75.8074 128.65 81.2871 133.93C82.0008 142.969 78.0168 151.2 71.2109 154.604C70.2402 155.088 69.2148 155.476 68.1348 155.752C67.0574 156.032 65.9719 156.187 64.889 156.231C55.9914 156.586 47.2851 149.291 44.518 138.532C41.4117 126.462 46.9515 114.606 56.891 112.049Z" fill="#FFCCEF"/>
<path d="M48.6597 139.717C45.5535 127.647 51.0933 115.791 61.0328 113.234C63.1265 112.695 65.2478 112.613 67.3215 112.93C64.0048 111.526 60.409 111.144 56.891 112.049C46.9515 114.606 41.4117 126.462 44.518 138.532C46.9677 148.057 54.0721 154.862 61.843 156.053C55.7885 153.487 50.6648 147.513 48.6597 139.717Z" fill="#FFAFE6"/>
<path d="M118.537 116.927C118.537 123.829 114.439 128.97 108.677 134.438C105.317 137.626 101.393 140.924 97.3841 144.747C96.6731 145.425 95.9595 146.122 95.2431 146.836C94.4118 146.002 93.5778 145.195 92.7493 144.411C88.6505 140.528 84.6583 137.184 81.2868 133.93C75.8071 128.65 71.9653 123.616 71.9653 116.927C71.9653 116.531 71.9845 116.143 72.0228 115.754C72.6106 109.878 77.5735 105.287 83.6056 105.287C89.4243 105.287 92.3337 108.196 95.2431 114.018C98.1552 108.196 101.065 105.287 106.883 105.287C112.806 105.287 117.684 109.695 118.436 115.399C118.499 115.899 118.537 116.41 118.537 116.927Z" fill="white"/>
<path d="M86.3914 136.121C80.9117 130.841 77.0699 125.807 77.0699 119.119C77.0699 118.722 77.089 118.334 77.1273 117.946C77.7152 112.07 82.6781 107.479 88.7101 107.479C89.4063 107.479 90.0598 107.521 90.6778 107.605C88.8269 106.061 86.6027 105.287 83.6061 105.287C77.5741 105.287 72.6112 109.878 72.0233 115.754C71.9851 116.143 71.9659 116.531 71.9659 116.927C71.9659 123.616 75.8077 128.65 81.2874 133.93C84.6589 137.184 88.6511 140.528 92.7499 144.411C93.5784 145.195 94.4124 146.002 95.2436 146.836C95.7101 146.371 96.1752 145.916 96.6393 145.466C92.9703 142.061 89.4284 139.053 86.3914 136.121Z" fill="#F2F2F2"/>
<path d="M95.2516 208.76C94.4966 208.76 93.8844 208.074 93.8844 207.227V154.434C93.8844 153.587 94.4966 152.9 95.2516 152.9C96.0068 152.9 96.6187 153.587 96.6187 154.434V207.227C96.6187 208.074 96.0068 208.76 95.2516 208.76Z" fill="#F2F2F2"/>
<path d="M109.136 205.713C109.023 205.713 108.908 205.699 108.794 205.67C108.063 205.482 107.623 204.736 107.81 204.005L118.069 165.012C118.257 164.281 119.003 163.841 119.734 164.029C120.465 164.217 120.905 164.962 120.718 165.694L110.459 204.686C110.3 205.303 109.745 205.713 109.136 205.713Z" fill="#F6C2E6"/>
<path d="M83.8641 206.713C83.2552 206.713 82.6998 206.303 82.541 205.686L69.2824 165.694C69.0942 164.962 69.5345 164.217 70.2659 164.029C70.9974 163.841 71.7425 164.281 71.9306 165.012L85.1892 205.005C85.3773 205.736 84.9371 206.481 84.2057 206.67C84.0916 206.699 83.9771 206.713 83.8641 206.713Z" fill="#F6C2E6"/>
<path d="M56.5968 143.249C56.1549 143.249 55.7212 143.035 55.4579 142.639C50.2492 134.823 52.6721 122.32 52.7777 121.792C52.9256 121.051 53.6461 120.571 54.3863 120.719C55.1265 120.867 55.6067 121.587 55.459 122.327C55.4355 122.446 53.1564 134.255 57.7332 141.123C58.1518 141.752 57.982 142.6 57.3537 143.019C57.1207 143.174 56.8574 143.249 56.5968 143.249Z" fill="#FFAFE6"/>
<path d="M130.927 145.726C130.577 145.726 130.227 145.593 129.96 145.326C129.426 144.792 129.426 143.926 129.96 143.392C139.068 134.282 134.704 125.239 134.659 125.149C134.321 124.473 134.595 123.652 135.27 123.315C135.946 122.977 136.767 123.251 137.104 123.926C137.161 124.039 138.488 126.738 138.488 130.731C138.488 134.38 137.344 139.874 131.894 145.325C131.627 145.593 131.277 145.726 130.927 145.726Z" fill="#FFAFE6"/>
<path d="M98.716 133.336C98.366 133.336 98.016 133.203 97.7492 132.936C97.2154 132.402 97.2154 131.536 97.7494 131.002L105.184 123.57C105.718 123.036 106.584 123.037 107.118 123.571C107.651 124.105 107.651 124.97 107.117 125.504L99.6826 132.936C99.4155 133.203 99.0658 133.336 98.716 133.336Z" fill="#F2F2F2"/>
<path d="M49.1637 172.98C48.4087 172.98 47.7965 172.368 47.7965 171.612V161.703C47.7965 160.948 48.4087 160.336 49.1637 160.336C49.9186 160.336 50.5309 160.948 50.5309 161.703V171.612C50.5309 172.368 49.9186 172.98 49.1637 172.98Z" fill="#FFCCEF"/>
<path d="M125.972 190.323C125.217 190.323 124.605 189.711 124.605 188.956V179.047C124.605 178.292 125.217 177.68 125.972 177.68C126.728 177.68 127.339 178.292 127.339 179.047V188.956C127.339 189.711 126.727 190.323 125.972 190.323Z" fill="#FFCCEF"/>
</g>
<defs>
<clipPath id="clip0_65_2445">
<rect width="152" height="200" rx="20" fill="white"/>
</clipPath>
</defs>
</svg>
