<svg width="153" height="200" viewBox="0 0 153 200" fill="none" xmlns="http://www.w3.org/2000/svg">
<g clip-path="url(#clip0_65_2480)">
<rect x="0.40918" width="152" height="200" rx="20" fill="#FF44C5"/>
<path d="M31.6217 32.9609V35.3047H27.3092C27.3795 37.4492 28.9029 39.5938 32.3014 40.5078L30.942 42.8047C28.5045 42.1719 26.817 40.8242 25.8561 39.1016C24.9186 41 23.2193 42.4883 20.6998 43.1797L19.2936 40.8828C22.692 39.9453 24.2857 37.6602 24.3326 35.3047H20.0436V32.9609H24.3326V30.7344H27.3561V32.9609H31.6217ZM22.4342 51.9219V44.2109H36.3795V51.9219H22.4342ZM25.3873 49.5312H33.4264V46.5781H25.3873V49.5312ZM33.3795 43.3203V30.8281H36.3795V35.8438H39.2623V38.2812H36.3795V43.3203H33.3795ZM45.4826 32.3281C47.4045 32.3281 48.9982 33.3711 49.9709 35.2109H54.6467V30.8281H57.5998V52.2031H54.6467V44.2109H50.1936C49.2443 46.3203 47.5451 47.5391 45.4826 47.5391C42.2482 47.5391 39.9279 44.6094 39.9514 39.9219C39.9279 35.2695 42.2482 32.3281 45.4826 32.3281ZM42.8107 39.9219C42.799 43.0977 43.8889 44.832 45.4826 44.8203C47.0881 44.832 48.1545 43.0977 48.1545 39.9219C48.1545 36.7578 47.0881 35.0234 45.4826 35.0234C43.8889 35.0234 42.799 36.7578 42.8107 39.9219ZM50.8029 37.625C50.9436 38.3281 51.0139 39.1016 51.0139 39.9219C51.0139 40.5898 50.967 41.2227 50.8732 41.8203H54.6467V37.625H50.8029ZM76.6639 30.7812V35.4219H79.5467V37.8125H76.6639V42.3359H73.6639V30.7812H76.6639ZM59.742 34.6953V32.4219H64.5936V30.6875H67.5701V32.4219H72.3982V34.6953H59.742ZM60.7732 38.7031C60.7732 36.5703 62.8943 35.2227 66.0701 35.2109C69.2693 35.2227 71.3201 36.5703 71.3201 38.7031C71.3201 40.8828 69.2693 42.1836 66.0701 42.1953C62.8943 42.1836 60.7732 40.8828 60.7732 38.7031ZM62.5076 45.3594V43.2031H76.6639V48.5938H65.4842V49.8125H77.2732V52.0156H62.5545V46.5547H73.6873V45.3594H62.5076ZM63.7029 38.7031C63.6912 39.6172 64.5936 40.0508 66.0701 40.0625C67.5584 40.0508 68.4842 39.6172 68.4842 38.7031C68.4842 37.8008 67.5584 37.3086 66.0701 37.3203C64.5936 37.3086 63.6912 37.8008 63.7029 38.7031ZM88.5795 32.8906V41.1172H83.3529V44.9375C85.3803 44.9141 87.3022 44.832 89.4936 44.4922L89.7045 46.8828C86.9154 47.3516 84.6068 47.4219 81.9701 47.4219H80.4936V38.7266H85.6967V35.3047H80.4701V32.8906H88.5795ZM90.6889 51.125V31.1797H93.4311V38.8906H95.4936V30.8281H98.3295V52.1562H95.4936V41.3047H93.4311V51.125H90.6889Z" fill="white"/>
<path d="M29.3711 64.8574V77.2168H27.8398V64.8574H29.3711ZM19.1309 73.8125C22.3711 72.2744 23.8613 70.1826 24.1348 67.373H19.7598V66.1699H25.6797C25.6797 69.8477 24.251 72.9717 19.9238 75.0293L19.1309 73.8125ZM40.8023 65.418V66.6348H37.2135C37.3502 67.8242 38.8678 68.9453 41.2535 69.2188L40.6793 70.4355C38.4645 70.1484 36.8307 69.1709 36.1676 67.8311C35.5045 69.1641 33.8844 70.1484 31.6695 70.4355L31.109 69.2188C33.4947 68.9453 34.985 67.8174 35.1285 66.6348H31.5738V65.418H40.8023ZM30.5484 72.6094V71.3652H35.4156V69.5469H36.9195V71.3652H41.8141V72.6094H30.5484ZM31.943 76.9707V73.4434H33.4605V75.7402H40.5426V76.9707H31.943ZM56.0633 74.4688V75.7129H44.7703V74.4688H49.6375V71.7754H46.0145V65.8145H54.7645V71.7754H51.1414V74.4688H56.0633ZM47.5047 70.5859H53.2605V67.0312H47.5047V70.5859ZM66.5648 64.8711V71.8711H65.0336V64.8711H66.5648ZM56.4887 68.4121C56.4887 66.6689 57.9105 65.4658 59.8246 65.459C61.7318 65.4658 63.1537 66.6689 63.1469 68.4121C63.1537 70.1143 61.7318 71.3379 59.8246 71.3379C57.9105 71.3379 56.4887 70.1143 56.4887 68.4121ZM57.9789 68.4121C57.9721 69.4102 58.7445 70.0596 59.8246 70.0527C60.8842 70.0596 61.6566 69.4102 61.6566 68.4121C61.6566 67.3867 60.8842 66.7441 59.8246 66.7441C58.7445 66.7441 57.9721 67.3867 57.9789 68.4121ZM58.3617 77.0664V72.4727H66.5648V77.0664H58.3617ZM59.8656 75.8359H65.0746V73.6758H59.8656V75.8359ZM78.4336 64.8574V77.2168H76.9707V64.8574H78.4336ZM67.8926 70.2031C67.8926 67.4824 68.9453 65.7939 70.5586 65.8008C72.0557 65.7939 73.0742 67.1953 73.252 69.5059H74.4414V65.0762H75.8906V76.6152H74.4414V70.7363H73.2656C73.1221 73.1494 72.0898 74.626 70.5586 74.6191C68.9453 74.626 67.8926 72.9307 67.8926 70.2031ZM69.3008 70.2031C69.2939 72.1377 69.7725 73.1768 70.5586 73.1699C71.3789 73.1768 71.8643 72.1377 71.8711 70.2031C71.8643 68.2754 71.3789 67.2295 70.5586 67.2363C69.7725 67.2295 69.2939 68.2754 69.3008 70.2031ZM86.4348 67.4004C86.4279 68.7471 87.4328 70.0459 89.3742 70.5859L88.677 71.7617C87.2551 71.3721 86.2502 70.5449 85.6896 69.4854C85.1496 70.6543 84.1174 71.5566 82.6477 71.9805L81.923 70.8047C83.8713 70.2578 84.9172 68.877 84.9172 67.4004V67.373H82.3332V66.1699H84.9172V64.8027H86.4484V66.1699H89.0187V67.373H86.4348V67.4004ZM83.7551 77.0664V72.6504H91.7395V77.0664H83.7551ZM85.259 75.8359H90.2355V73.8535H85.259V75.8359ZM90.2219 72.1309V64.8574H91.7395V67.8379H93.4621V69.0957H91.7395V72.1309H90.2219ZM103.171 64.8574V69.6836H105.003V70.9551H103.171V77.1895H101.653V64.8574H103.171ZM93.4227 73.8125C96.4305 72.3086 98.0574 70.2168 98.3582 67.4004H94.0926V66.1426H99.9031C99.8963 69.7725 98.3924 72.9648 94.284 74.9883L93.4227 73.8125ZM111.02 66.8262V68.043H104.963V66.8262H107.26V65.2129H108.764V66.8262H111.02ZM105.319 71.5703C105.305 69.8887 106.447 68.6924 108.012 68.6992C109.584 68.6924 110.705 69.8887 110.705 71.5703C110.705 73.2861 109.584 74.4824 108.012 74.4824C106.447 74.4824 105.305 73.2861 105.319 71.5703ZM106.659 71.5703C106.652 72.5684 107.212 73.1904 108.012 73.1836C108.805 73.1904 109.366 72.5684 109.366 71.5703C109.366 70.5996 108.805 69.957 108.012 69.957C107.212 69.957 106.652 70.5996 106.659 71.5703ZM111.539 76.6562V65.1172H112.961V69.9434H114.164V64.8574H115.614V77.2168H114.164V71.1738H112.961V76.6562H111.539ZM127.783 74.4688V75.7129H116.49V74.4688H119.102V71.3447C118.117 70.7773 117.522 69.8887 117.529 68.7949C117.522 66.8262 119.45 65.5273 122.109 65.5273C124.782 65.5273 126.724 66.8262 126.717 68.7949C126.724 69.875 126.143 70.7432 125.186 71.3105V74.4688H127.783ZM119.02 68.7949C119.013 70.0596 120.264 70.8662 122.109 70.8594C123.948 70.8662 125.227 70.0596 125.227 68.7949C125.227 67.5098 123.948 66.7236 122.109 66.7305C120.264 66.7236 119.013 67.5098 119.02 68.7949ZM120.605 74.4688H123.641V71.8916C123.169 71.9941 122.656 72.0488 122.109 72.0488C121.576 72.0488 121.07 71.9941 120.605 71.8984V74.4688Z" fill="#F2F2F2"/>
<path d="M130.097 93.4121H110.003V108.279H130.097V93.4121Z" fill="#FFCCEF"/>
<path d="M112.22 95.6401H130.097V93.4121H110.003V108.279H112.22V95.6401Z" fill="#F2F2F2"/>
<path d="M111.112 94.7799C110.499 94.7799 110.003 94.1677 110.003 93.4127V88.458C110.003 87.703 110.499 87.0908 111.112 87.0908C111.724 87.0908 112.22 87.703 112.22 88.458V93.4127C112.22 94.1677 111.724 94.7799 111.112 94.7799Z" fill="#F2F2F2"/>
<path d="M111.112 124.513C110.499 124.513 110.003 123.901 110.003 123.146V108.279C110.003 107.524 110.499 106.912 111.112 106.912C111.724 106.912 112.22 107.524 112.22 108.279V123.146C112.22 123.901 111.724 124.513 111.112 124.513Z" fill="#F2F2F2"/>
<path d="M115.231 180.134H97.8865V204.91H115.231V180.134Z" fill="#4E4E4E"/>
<path d="M99.9829 182.503H115.231V180.134H97.8865V204.91H99.9829V182.503Z" fill="#323232"/>
<path d="M115.231 170.221H97.8865V180.133H115.231V170.221Z" fill="#6E6E6E"/>
<path d="M100.572 172.772H115.231V170.221H97.8865V180.133H100.572V172.772Z" fill="#4E4E4E"/>
<path fill-rule="evenodd" clip-rule="evenodd" d="M73.1103 162.789V140.985L58.2435 152.877L45.3933 142.598V142.598L43.3767 140.985V162.789H45.3933H55.7662H73.1103Z" fill="#FFCCEF"/>
<path fill-rule="evenodd" clip-rule="evenodd" d="M71.4503 142.313L73.1103 140.985V140.49H55.7662H43.3767V140.985L58.2435 152.877L59.5196 151.856L59.5195 151.856L71.4503 142.313Z" fill="#FFCCEF"/>
<path d="M83.7771 130.056V170.222H71.0459H55.7662V162.79H73.1103V140.986V140.491H55.7662V130.056C55.7662 126.094 57.333 122.51 59.8677 119.915C62.4025 117.317 65.9052 115.712 69.7716 115.712C70.2009 115.712 70.6248 115.737 71.0459 115.775C78.1826 116.434 83.7771 122.575 83.7771 130.056Z" fill="#E2E2E2"/>
<path d="M58.2435 133.201C58.2435 129.239 59.8103 125.654 62.3451 123.059C64.8798 120.462 68.3826 118.856 72.249 118.856C72.6783 118.856 73.1021 118.881 73.5232 118.919C76.7129 119.214 79.5924 120.606 81.8043 122.721C79.5651 118.879 75.6243 116.198 71.0459 115.775C70.6248 115.737 70.2009 115.712 69.7716 115.712C65.9052 115.712 62.4025 117.317 59.8677 119.915C57.333 122.51 55.7662 126.094 55.7662 130.056V140.491H58.2435V133.201Z" fill="#C9C9C9"/>
<path d="M131.467 130.578C134.817 130.578 137.529 133.066 137.529 136.132C137.529 141.685 131.467 144.846 125.413 150.4C119.357 144.846 113.303 141.685 113.303 136.132C113.303 133.066 116.015 130.578 119.357 130.578C122.387 130.578 123.899 131.967 125.413 134.743C126.926 131.967 128.44 130.578 131.467 130.578Z" fill="#FF44C5"/>
<path d="M116.242 137.619C116.242 134.554 118.955 132.066 122.296 132.066C122.764 132.066 123.191 132.103 123.591 132.169C122.52 131.109 121.228 130.578 119.357 130.578C116.015 130.578 113.303 133.066 113.303 136.132C113.303 141.685 119.357 144.846 125.413 150.4C125.617 150.213 125.82 150.029 126.023 149.848C120.836 145.479 116.242 142.457 116.242 137.619Z" fill="#FF44C5"/>
<path d="M110.276 115.712H126.644C138.128 115.712 147.442 124.771 147.442 135.946V170.222H115.231H97.8865H83.7772V130.056C83.7772 122.575 78.1826 116.434 71.0459 115.775V115.712H110.276ZM137.529 136.132C137.529 133.067 134.817 130.579 131.467 130.579C128.44 130.579 126.926 131.968 125.413 134.743C123.899 131.968 122.387 130.579 119.357 130.579C116.015 130.579 113.303 133.067 113.303 136.132C113.303 141.686 119.357 144.847 125.413 150.4C131.467 144.847 137.529 141.686 137.529 136.132Z" fill="white"/>
<path d="M126.644 115.712H110.276H71.0459V115.775C73.4636 115.998 75.7036 116.852 77.6098 118.173H108.909H125.277C136.761 118.173 146.074 127.232 146.074 138.407V170.222H147.442V135.946C147.442 124.771 138.128 115.712 126.644 115.712Z" fill="#C9C9C9"/>
</g>
<defs>
<clipPath id="clip0_65_2480">
<rect x="0.40918" width="152" height="200" rx="20" fill="white"/>
</clipPath>
</defs>
</svg>
