<svg width="326" height="491" viewBox="0 0 326 491" fill="none" xmlns="http://www.w3.org/2000/svg">
<g clip-path="url(#clip0_122_2639)">
<rect width="326" height="491" rx="16.3" fill="#FFF0FA"/>
<g opacity="0.3">
<path d="M148.172 181.493C159.999 181.493 169.582 191.229 169.582 203.231C169.582 224.968 148.172 237.348 126.783 259.078C105.394 237.348 84.0054 224.968 84.0054 203.231C84.0054 191.229 93.5809 181.493 105.394 181.493C116.089 181.493 121.436 186.928 126.783 197.796C132.13 186.928 137.477 181.493 148.172 181.493Z" fill="white"/>
<path d="M93.8788 204.048C93.8788 193.013 101.975 183.901 112.461 182.503C110.381 181.831 108.053 181.494 105.394 181.494C93.5809 181.494 84.0054 191.23 84.0054 203.232C84.0054 224.969 105.394 237.349 126.783 259.079C128.289 257.549 129.795 256.069 131.293 254.625C111.835 236.03 93.8788 223.964 93.8788 204.048Z" fill="#E2E2E2"/>
<path d="M235.412 213.794C235.412 233.454 229.673 251.762 219.77 267.15C208.684 284.39 192.373 297.954 173.084 305.611C161.816 310.079 149.53 312.542 136.664 312.542C119.62 312.542 103.585 308.227 89.5925 300.62L37.9224 312.542L54.4434 268.486C44.0033 252.83 37.9224 234.02 37.9224 213.794C37.9224 159.261 82.1311 115.045 136.664 115.045C191.204 115.046 235.412 159.262 235.412 213.794ZM169.582 203.231C169.582 191.229 160 181.493 148.172 181.493C137.477 181.493 132.13 186.928 126.783 197.796C121.436 186.928 116.089 181.493 105.394 181.493C93.5811 181.493 84.0056 191.229 84.0056 203.231C84.0056 224.968 105.394 237.348 126.783 259.078C148.172 237.348 169.582 224.968 169.582 203.231Z" fill="#FFCCEF"/>
<path d="M49.1098 309.962L64.6617 268.492C54.2216 252.836 48.1406 234.026 48.1406 213.799C48.1406 160.971 89.6293 117.824 141.801 115.179C140.1 115.092 138.388 115.047 136.664 115.047C82.1316 115.047 37.9229 159.263 37.9229 213.796C37.9229 234.022 44.0038 252.831 54.4439 268.489L37.9229 312.544L49.1098 309.962Z" fill="#FF9DE1"/>
<path d="M278.168 358.525L288.078 384.956L257.078 377.807C248.678 382.369 239.06 384.956 228.83 384.956C196.108 384.956 169.582 358.43 169.582 325.708C169.582 318.653 170.817 311.89 173.084 305.612C192.373 297.955 208.683 284.391 219.77 267.151C222.727 266.701 225.749 266.461 228.83 266.461C261.553 266.461 288.078 292.986 288.078 325.709C288.078 337.848 284.43 349.131 278.168 358.525Z" fill="white"/>
<path d="M179.797 331.157C179.797 324.102 181.032 317.338 183.299 311.061C202.588 303.404 218.898 289.84 229.985 272.6C232.942 272.15 235.964 271.91 239.046 271.91C247.056 271.91 254.691 273.508 261.66 276.389C252.262 270.12 240.975 266.461 228.83 266.461C225.75 266.461 222.727 266.701 219.77 267.151C208.683 284.391 192.372 297.955 173.083 305.612C170.817 311.89 169.582 318.653 169.582 325.708C169.582 350.42 184.714 371.588 206.215 380.476C190.291 369.856 179.797 351.734 179.797 331.157Z" fill="#E2E2E2"/>
<path d="M136.664 289.846C134.658 289.846 133.031 288.22 133.031 286.214C133.031 284.207 134.658 282.581 136.664 282.581C174.593 282.581 205.451 251.723 205.451 213.794C205.451 175.869 174.593 145.014 136.664 145.014C134.658 145.014 133.031 143.388 133.031 141.382C133.031 139.376 134.658 137.749 136.664 137.749C178.599 137.749 212.716 171.863 212.716 213.794C212.716 255.729 178.599 289.846 136.664 289.846Z" fill="#FF9DE1"/>
<path d="M143.253 349.095H57.6692C55.6633 349.095 54.0366 347.469 54.0366 345.463C54.0366 343.456 55.6633 341.83 57.6692 341.83H143.253C145.259 341.83 146.886 343.456 146.886 345.463C146.886 347.469 145.259 349.095 143.253 349.095Z" fill="#FF9DE1"/>
<path d="M156.418 368.841H123.499C121.493 368.841 119.867 367.215 119.867 365.209C119.867 363.202 121.493 361.576 123.499 361.576H156.418C158.424 361.576 160.051 363.202 160.051 365.209C160.051 367.215 158.424 368.841 156.418 368.841Z" fill="#E2E2E2"/>
</g>
</g>
<defs>
<clipPath id="clip0_122_2639">
<rect width="326" height="491" rx="16.3" fill="white"/>
</clipPath>
</defs>
</svg>
